<svg width="308" height="28" viewBox="0 0 308 28" fill="none" xmlns="http://www.w3.org/2000/svg">
<rect width="308" height="28" fill="#4992FF"/>
<path d="M10 14.5H9V20.5H10C10.2762 20.5 10.5 20.2761 10.5 20V15C10.5 14.7238 10.2762 14.5 10 14.5Z" fill="white"/>
<path d="M22.427 15.1678C22.0659 14.952 21.6284 14.9427 21.2588 15.1424L17.9845 16.9028C17.9081 17.5195 17.3868 17.9998 16.75 17.9998H14.74C14.6018 17.9998 14.49 17.888 14.49 17.7498C14.49 17.6117 14.6018 17.4998 14.74 17.4998H16.75C17.1636 17.4998 17.5 17.1634 17.5 16.7498C17.5 16.3441 17.1757 16.0146 16.7729 16.0022C16.6233 16.0004 14.207 15.9998 14.207 15.9998L13.3535 15.1463C13.2598 15.0526 13.1326 14.9998 13 14.9998H11V20.0008H11.8828L13.5 20.4998C14.1719 20.7159 14.8905 20.9998 15.6868 20.9998C16.4067 20.9998 17.1162 20.7611 17.7285 20.2918L22.4902 17.14C22.8093 16.9212 23 16.5599 23 16.1742C23 15.7577 22.7859 15.3817 22.427 15.1678Z" fill="white"/>
<g clip-path="url(#clip0_1551_344)">
<path d="M16.4089 10.022L16.4086 10.0223L14.4175 12.0091L16.4082 13.9998H18.6769L16.6892 12.0094L18.6769 10.022H16.4089Z" fill="white"/>
<path d="M13.846 11.446L18.6718 6.61893H16.4081L16.4041 6.61523L12.7075 10.3075L13.846 11.446Z" fill="white"/>
</g>
<path d="M34.6201 18H29.3613V10.7295H34.6201V12.1357H31.2266V13.3906H34.376V14.7969H31.2266V16.5938H34.6201V18ZM42.7891 18H40.6211L39.0537 15.6074L37.457 18H35.3867L37.9648 14.3379L35.4404 10.7295H37.6035L39.1172 12.9951L40.6748 10.7295H42.75L40.2109 14.2646L42.7891 18ZM49.835 13.0244C49.835 13.3499 49.778 13.6689 49.6641 13.9814C49.5501 14.2907 49.3874 14.5511 49.1758 14.7627C48.8861 15.0492 48.5622 15.2656 48.2041 15.4121C47.8493 15.5586 47.4066 15.6318 46.876 15.6318H45.709V18H43.834V10.7295H46.9199C47.3822 10.7295 47.7712 10.7702 48.0869 10.8516C48.4059 10.9297 48.6875 11.0485 48.9316 11.208C49.2246 11.4001 49.4476 11.6458 49.6006 11.9453C49.7568 12.2448 49.835 12.6045 49.835 13.0244ZM47.8965 13.0684C47.8965 12.8633 47.8411 12.6875 47.7305 12.541C47.6198 12.3913 47.4912 12.2871 47.3447 12.2285C47.1494 12.1504 46.959 12.1081 46.7734 12.1016C46.5879 12.0918 46.3405 12.0869 46.0312 12.0869H45.709V14.2646H46.2461C46.5651 14.2646 46.8271 14.2451 47.0322 14.2061C47.2406 14.167 47.4147 14.0889 47.5547 13.9717C47.6751 13.8675 47.7614 13.7438 47.8135 13.6006C47.8688 13.4541 47.8965 13.2767 47.8965 13.0684ZM56.4121 18H51.168V10.7295H53.043V16.5938H56.4121V18ZM64.6152 14.3672C64.6152 15.526 64.2832 16.4473 63.6191 17.1309C62.9551 17.8112 62.0371 18.1514 60.8652 18.1514C59.6966 18.1514 58.7803 17.8112 58.1162 17.1309C57.4521 16.4473 57.1201 15.526 57.1201 14.3672C57.1201 13.1986 57.4521 12.2757 58.1162 11.5986C58.7803 10.9183 59.6966 10.5781 60.8652 10.5781C62.0306 10.5781 62.9469 10.9183 63.6143 11.5986C64.2816 12.2757 64.6152 13.1986 64.6152 14.3672ZM62.1299 16.208C62.3122 15.9867 62.4473 15.7262 62.5352 15.4268C62.623 15.124 62.667 14.7692 62.667 14.3623C62.667 13.9261 62.6165 13.555 62.5156 13.249C62.4147 12.943 62.2829 12.6956 62.1201 12.5068C61.9541 12.3115 61.762 12.1699 61.5439 12.082C61.3291 11.9941 61.1045 11.9502 60.8701 11.9502C60.6325 11.9502 60.4079 11.9925 60.1963 12.0771C59.988 12.1618 59.7959 12.3018 59.6201 12.4971C59.4574 12.6794 59.3239 12.9316 59.2197 13.2539C59.1188 13.5729 59.0684 13.944 59.0684 14.3672C59.0684 14.8001 59.1172 15.1696 59.2148 15.4756C59.3158 15.7783 59.4476 16.0257 59.6104 16.2178C59.7731 16.4098 59.9635 16.5514 60.1816 16.6426C60.3997 16.7337 60.6292 16.7793 60.8701 16.7793C61.111 16.7793 61.3405 16.7337 61.5586 16.6426C61.7767 16.5482 61.9671 16.4033 62.1299 16.208ZM70.1279 12.9561C70.1279 12.7738 70.0905 12.6175 70.0156 12.4873C69.9408 12.3571 69.8122 12.2546 69.6299 12.1797C69.5029 12.1276 69.3548 12.0967 69.1855 12.0869C69.0163 12.0739 68.8193 12.0674 68.5947 12.0674H67.916V14.0254H68.4922C68.7917 14.0254 69.0423 14.0107 69.2441 13.9814C69.446 13.9521 69.6152 13.8854 69.752 13.7812C69.8822 13.6803 69.9766 13.5697 70.0352 13.4492C70.097 13.3255 70.1279 13.1611 70.1279 12.9561ZM73.0527 18H70.7627L68.7803 15.334H67.916V18H66.0508V10.7295H69.1953C69.625 10.7295 69.9945 10.7539 70.3037 10.8027C70.613 10.8516 70.9027 10.9574 71.1729 11.1201C71.4463 11.2829 71.6628 11.4945 71.8223 11.7549C71.985 12.012 72.0664 12.3359 72.0664 12.7266C72.0664 13.2637 71.9411 13.7015 71.6904 14.04C71.443 14.3786 71.0882 14.6602 70.626 14.8848L73.0527 18ZM79.1318 18H73.873V10.7295H79.1318V12.1357H75.7383V13.3906H78.8877V14.7969H75.7383V16.5938H79.1318V18ZM91.1973 14.3672C91.1973 15.526 90.8652 16.4473 90.2012 17.1309C89.5371 17.8112 88.6191 18.1514 87.4473 18.1514C86.2786 18.1514 85.3623 17.8112 84.6982 17.1309C84.0342 16.4473 83.7021 15.526 83.7021 14.3672C83.7021 13.1986 84.0342 12.2757 84.6982 11.5986C85.3623 10.9183 86.2786 10.5781 87.4473 10.5781C88.6126 10.5781 89.529 10.9183 90.1963 11.5986C90.8636 12.2757 91.1973 13.1986 91.1973 14.3672ZM88.7119 16.208C88.8942 15.9867 89.0293 15.7262 89.1172 15.4268C89.2051 15.124 89.249 14.7692 89.249 14.3623C89.249 13.9261 89.1986 13.555 89.0977 13.249C88.9967 12.943 88.8649 12.6956 88.7021 12.5068C88.5361 12.3115 88.3441 12.1699 88.126 12.082C87.9111 11.9941 87.6865 11.9502 87.4521 11.9502C87.2145 11.9502 86.9899 11.9925 86.7783 12.0771C86.57 12.1618 86.3779 12.3018 86.2021 12.4971C86.0394 12.6794 85.9059 12.9316 85.8018 13.2539C85.7008 13.5729 85.6504 13.944 85.6504 14.3672C85.6504 14.8001 85.6992 15.1696 85.7969 15.4756C85.8978 15.7783 86.0296 16.0257 86.1924 16.2178C86.3551 16.4098 86.5456 16.5514 86.7637 16.6426C86.9818 16.7337 87.2113 16.7793 87.4521 16.7793C87.693 16.7793 87.9225 16.7337 88.1406 16.6426C88.3587 16.5482 88.5492 16.4033 88.7119 16.208ZM99 15.3682C99 16.2666 98.7266 16.9551 98.1797 17.4336C97.6328 17.9121 96.8271 18.1514 95.7627 18.1514C94.6982 18.1514 93.8926 17.9121 93.3457 17.4336C92.8021 16.9551 92.5303 16.2682 92.5303 15.373V10.7295H94.415V15.2656C94.415 15.7702 94.5208 16.1462 94.7324 16.3936C94.944 16.641 95.2874 16.7646 95.7627 16.7646C96.2314 16.7646 96.5732 16.6458 96.7881 16.4082C97.0062 16.1706 97.1152 15.7897 97.1152 15.2656V10.7295H99V15.3682ZM104.835 12.9561C104.835 12.7738 104.798 12.6175 104.723 12.4873C104.648 12.3571 104.519 12.2546 104.337 12.1797C104.21 12.1276 104.062 12.0967 103.893 12.0869C103.723 12.0739 103.526 12.0674 103.302 12.0674H102.623V14.0254H103.199C103.499 14.0254 103.749 14.0107 103.951 13.9814C104.153 13.9521 104.322 13.8854 104.459 13.7812C104.589 13.6803 104.684 13.5697 104.742 13.4492C104.804 13.3255 104.835 13.1611 104.835 12.9561ZM107.76 18H105.47L103.487 15.334H102.623V18H100.758V10.7295H103.902C104.332 10.7295 104.701 10.7539 105.011 10.8027C105.32 10.8516 105.61 10.9574 105.88 11.1201C106.153 11.2829 106.37 11.4945 106.529 11.7549C106.692 12.012 106.773 12.3359 106.773 12.7266C106.773 13.2637 106.648 13.7015 106.397 14.04C106.15 14.3786 105.795 14.6602 105.333 14.8848L107.76 18ZM117.208 12.1357H113.863V13.4883H116.964V14.8945H113.863V18H111.998V10.7295H117.208V12.1357ZM123.746 18H118.502V10.7295H120.377V16.5938H123.746V18ZM131.246 15.3682C131.246 16.2666 130.973 16.9551 130.426 17.4336C129.879 17.9121 129.073 18.1514 128.009 18.1514C126.944 18.1514 126.139 17.9121 125.592 17.4336C125.048 16.9551 124.776 16.2682 124.776 15.373V10.7295H126.661V15.2656C126.661 15.7702 126.767 16.1462 126.979 16.3936C127.19 16.641 127.534 16.7646 128.009 16.7646C128.478 16.7646 128.819 16.6458 129.034 16.4082C129.252 16.1706 129.361 15.7897 129.361 15.2656V10.7295H131.246V15.3682ZM138.692 12.1357H136.422V18H134.547V12.1357H132.276V10.7295H138.692V12.1357ZM145.509 12.1357H143.238V18H141.363V12.1357H139.093V10.7295H145.509V12.1357ZM151.896 18H146.637V10.7295H151.896V12.1357H148.502V13.3906H151.651V14.7969H148.502V16.5938H151.896V18ZM157.55 12.9561C157.55 12.7738 157.512 12.6175 157.438 12.4873C157.363 12.3571 157.234 12.2546 157.052 12.1797C156.925 12.1276 156.777 12.0967 156.607 12.0869C156.438 12.0739 156.241 12.0674 156.017 12.0674H155.338V14.0254H155.914C156.214 14.0254 156.464 14.0107 156.666 13.9814C156.868 13.9521 157.037 13.8854 157.174 13.7812C157.304 13.6803 157.398 13.5697 157.457 13.4492C157.519 13.3255 157.55 13.1611 157.55 12.9561ZM160.475 18H158.185L156.202 15.334H155.338V18H153.473V10.7295H156.617C157.047 10.7295 157.416 10.7539 157.726 10.8027C158.035 10.8516 158.325 10.9574 158.595 11.1201C158.868 11.2829 159.085 11.4945 159.244 11.7549C159.407 12.012 159.488 12.3359 159.488 12.7266C159.488 13.2637 159.363 13.7015 159.112 14.04C158.865 14.3786 158.51 14.6602 158.048 14.8848L160.475 18ZM171.583 14.3721C171.583 15.0492 171.428 15.6562 171.119 16.1934C170.81 16.7272 170.419 17.1374 169.947 17.4238C169.592 17.6387 169.203 17.7884 168.78 17.873C168.357 17.9577 167.856 18 167.276 18H164.713V10.7295H167.35C167.942 10.7295 168.453 10.7799 168.883 10.8809C169.312 10.9785 169.674 11.1185 169.967 11.3008C170.468 11.6068 170.862 12.0202 171.148 12.541C171.438 13.0586 171.583 13.6689 171.583 14.3721ZM169.645 14.3574C169.645 13.8789 169.557 13.4704 169.381 13.1318C169.208 12.79 168.933 12.5231 168.556 12.3311C168.364 12.2367 168.167 12.1732 167.965 12.1406C167.766 12.1048 167.465 12.0869 167.062 12.0869H166.588V16.6377H167.062C167.507 16.6377 167.835 16.6182 168.043 16.5791C168.251 16.5368 168.455 16.4619 168.653 16.3545C168.995 16.1592 169.246 15.8988 169.405 15.5732C169.565 15.2445 169.645 14.8392 169.645 14.3574ZM178.272 18H173.014V10.7295H178.272V12.1357H174.879V13.3906H178.028V14.7969H174.879V16.5938H178.272V18ZM186.441 10.7295L183.79 18H181.69L179.039 10.7295H181.007L182.765 15.8369L184.522 10.7295H186.441ZM192.745 18H187.486V10.7295H192.745V12.1357H189.352V13.3906H192.501V14.7969H189.352V16.5938H192.745V18ZM199.566 18H194.322V10.7295H196.197V16.5938H199.566V18ZM207.77 14.3672C207.77 15.526 207.438 16.4473 206.773 17.1309C206.109 17.8112 205.191 18.1514 204.02 18.1514C202.851 18.1514 201.935 17.8112 201.271 17.1309C200.606 16.4473 200.274 15.526 200.274 14.3672C200.274 13.1986 200.606 12.2757 201.271 11.5986C201.935 10.9183 202.851 10.5781 204.02 10.5781C205.185 10.5781 206.101 10.9183 206.769 11.5986C207.436 12.2757 207.77 13.1986 207.77 14.3672ZM205.284 16.208C205.466 15.9867 205.602 15.7262 205.689 15.4268C205.777 15.124 205.821 14.7692 205.821 14.3623C205.821 13.9261 205.771 13.555 205.67 13.249C205.569 12.943 205.437 12.6956 205.274 12.5068C205.108 12.3115 204.916 12.1699 204.698 12.082C204.483 11.9941 204.259 11.9502 204.024 11.9502C203.787 11.9502 203.562 11.9925 203.351 12.0771C203.142 12.1618 202.95 12.3018 202.774 12.4971C202.612 12.6794 202.478 12.9316 202.374 13.2539C202.273 13.5729 202.223 13.944 202.223 14.3672C202.223 14.8001 202.271 15.1696 202.369 15.4756C202.47 15.7783 202.602 16.0257 202.765 16.2178C202.927 16.4098 203.118 16.5514 203.336 16.6426C203.554 16.7337 203.784 16.7793 204.024 16.7793C204.265 16.7793 204.495 16.7337 204.713 16.6426C204.931 16.5482 205.121 16.4033 205.284 16.208ZM215.206 13.0244C215.206 13.3499 215.149 13.6689 215.035 13.9814C214.921 14.2907 214.758 14.5511 214.547 14.7627C214.257 15.0492 213.933 15.2656 213.575 15.4121C213.22 15.5586 212.778 15.6318 212.247 15.6318H211.08V18H209.205V10.7295H212.291C212.753 10.7295 213.142 10.7702 213.458 10.8516C213.777 10.9297 214.059 11.0485 214.303 11.208C214.596 11.4001 214.819 11.6458 214.972 11.9453C215.128 12.2448 215.206 12.6045 215.206 13.0244ZM213.268 13.0684C213.268 12.8633 213.212 12.6875 213.102 12.541C212.991 12.3913 212.862 12.2871 212.716 12.2285C212.521 12.1504 212.33 12.1081 212.145 12.1016C211.959 12.0918 211.712 12.0869 211.402 12.0869H211.08V14.2646H211.617C211.936 14.2646 212.198 14.2451 212.403 14.2061C212.612 14.167 212.786 14.0889 212.926 13.9717C213.046 13.8675 213.132 13.7438 213.185 13.6006C213.24 13.4541 213.268 13.2767 213.268 13.0684ZM224.161 18H222.296V13.1318L220.948 16.291H219.654L218.307 13.1318V18H216.539V10.7295H218.717L220.353 14.377L221.983 10.7295H224.161V18ZM231.28 18H226.021V10.7295H231.28V12.1357H227.887V13.3906H231.036V14.7969H227.887V16.5938H231.28V18ZM239.469 18H237.662L234.576 13.0098V18H232.857V10.7295H235.099L237.75 14.8945V10.7295H239.469V18ZM247.013 12.1357H244.742V18H242.867V12.1357H240.597V10.7295H247.013V12.1357ZM257.379 15.7148C257.379 16.431 257.075 17.0137 256.466 17.4629C255.86 17.9089 255.037 18.1318 253.995 18.1318C253.393 18.1318 252.867 18.0798 252.418 17.9756C251.972 17.8682 251.554 17.7331 251.163 17.5703V15.8271H251.368C251.756 16.1364 252.188 16.374 252.667 16.54C253.149 16.7061 253.611 16.7891 254.054 16.7891C254.168 16.7891 254.317 16.7793 254.503 16.7598C254.688 16.7402 254.84 16.7077 254.957 16.6621C255.1 16.6035 255.217 16.5303 255.309 16.4424C255.403 16.3545 255.45 16.2243 255.45 16.0518C255.45 15.8923 255.382 15.7555 255.245 15.6416C255.112 15.5244 254.915 15.4349 254.654 15.373C254.381 15.3079 254.091 15.2477 253.785 15.1924C253.482 15.1338 253.198 15.0605 252.931 14.9727C252.319 14.7741 251.878 14.5055 251.607 14.167C251.34 13.8252 251.207 13.402 251.207 12.8975C251.207 12.2204 251.51 11.6686 252.115 11.2422C252.724 10.8125 253.505 10.5977 254.459 10.5977C254.938 10.5977 255.41 10.6449 255.875 10.7393C256.344 10.8304 256.749 10.946 257.091 11.0859V12.7607H256.891C256.598 12.5264 256.238 12.3311 255.812 12.1748C255.388 12.0153 254.955 11.9355 254.513 11.9355C254.356 11.9355 254.2 11.9469 254.044 11.9697C253.891 11.9893 253.743 12.0283 253.6 12.0869C253.473 12.1357 253.364 12.2106 253.272 12.3115C253.181 12.4092 253.136 12.5215 253.136 12.6484C253.136 12.8405 253.209 12.9886 253.355 13.0928C253.502 13.1937 253.779 13.2865 254.186 13.3711C254.452 13.4264 254.708 13.4801 254.952 13.5322C255.2 13.5843 255.465 13.6559 255.748 13.7471C256.305 13.9294 256.715 14.1784 256.979 14.4941C257.245 14.8066 257.379 15.2135 257.379 15.7148ZM263.927 18H258.668V10.7295H263.927V12.1357H260.533V13.3906H263.683V14.7969H260.533V16.5938H263.927V18ZM269.581 12.9561C269.581 12.7738 269.544 12.6175 269.469 12.4873C269.394 12.3571 269.265 12.2546 269.083 12.1797C268.956 12.1276 268.808 12.0967 268.639 12.0869C268.469 12.0739 268.272 12.0674 268.048 12.0674H267.369V14.0254H267.945C268.245 14.0254 268.495 14.0107 268.697 13.9814C268.899 13.9521 269.068 13.8854 269.205 13.7812C269.335 13.6803 269.43 13.5697 269.488 13.4492C269.55 13.3255 269.581 13.1611 269.581 12.9561ZM272.506 18H270.216L268.233 15.334H267.369V18H265.504V10.7295H268.648C269.078 10.7295 269.448 10.7539 269.757 10.8027C270.066 10.8516 270.356 10.9574 270.626 11.1201C270.899 11.2829 271.116 11.4945 271.275 11.7549C271.438 12.012 271.52 12.3359 271.52 12.7266C271.52 13.2637 271.394 13.7015 271.144 14.04C270.896 14.3786 270.541 14.6602 270.079 14.8848L272.506 18ZM279.918 10.7295L277.267 18H275.167L272.516 10.7295H274.483L276.241 15.8369L277.999 10.7295H279.918ZM284.894 18H280.636V16.7109H281.827V12.0186H280.636V10.7295H284.894V12.0186H283.702V16.7109H284.894V18ZM289.708 18.1416C289.168 18.1416 288.668 18.0618 288.209 17.9023C287.753 17.7428 287.361 17.5052 287.032 17.1895C286.703 16.8737 286.448 16.4798 286.266 16.0078C286.087 15.5358 285.997 14.9906 285.997 14.3721C285.997 13.7959 286.083 13.2734 286.256 12.8047C286.428 12.3359 286.679 11.9339 287.008 11.5986C287.324 11.2764 287.714 11.0273 288.18 10.8516C288.648 10.6758 289.16 10.5879 289.713 10.5879C290.019 10.5879 290.294 10.6058 290.538 10.6416C290.785 10.6742 291.013 10.7181 291.222 10.7734C291.44 10.8353 291.637 10.9053 291.812 10.9834C291.992 11.0583 292.148 11.1283 292.281 11.1934V12.9561H292.066C291.975 12.8779 291.86 12.7852 291.72 12.6777C291.583 12.5703 291.427 12.4645 291.251 12.3604C291.072 12.2562 290.878 12.1683 290.67 12.0967C290.462 12.0251 290.239 11.9893 290.001 11.9893C289.737 11.9893 289.487 12.0316 289.249 12.1162C289.011 12.1976 288.792 12.3343 288.59 12.5264C288.398 12.7119 288.242 12.9577 288.121 13.2637C288.004 13.5697 287.945 13.9408 287.945 14.377C287.945 14.8327 288.009 15.2135 288.136 15.5195C288.266 15.8255 288.429 16.0664 288.624 16.2422C288.823 16.4212 289.044 16.5498 289.288 16.6279C289.532 16.7028 289.773 16.7402 290.011 16.7402C290.239 16.7402 290.463 16.7061 290.685 16.6377C290.909 16.5693 291.116 16.4766 291.305 16.3594C291.464 16.265 291.612 16.1641 291.749 16.0566C291.886 15.9492 291.998 15.8564 292.086 15.7783H292.281V17.5166C292.099 17.598 291.925 17.6745 291.759 17.7461C291.593 17.8177 291.419 17.8796 291.236 17.9316C290.999 18 290.776 18.0521 290.567 18.0879C290.359 18.1237 290.073 18.1416 289.708 18.1416ZM298.917 18H293.658V10.7295H298.917V12.1357H295.523V13.3906H298.673V14.7969H295.523V16.5938H298.917V18Z" fill="white"/>
<defs>
<clipPath id="clip0_1551_344">
<rect width="7.38462" height="7.38462" fill="white" transform="translate(12 6.61523)"/>
</clipPath>
</defs>
</svg>
