<svg width="188" height="28" viewBox="0 0 188 28" fill="none" xmlns="http://www.w3.org/2000/svg">
<rect width="188" height="28" fill="#4992FF"/>
<path d="M14.1345 14.4029C14.1345 14.4545 14.133 14.5061 14.1283 14.5592C14.1283 14.5592 14.1251 14.5779 14.1251 14.5936C14.1236 14.6076 14.1189 14.6264 14.1189 14.6279C14.1017 14.7264 14.0751 14.8232 14.0408 14.917C14.0392 14.9232 14.0345 14.9373 14.0314 14.9482C14.033 14.9436 14.033 14.9389 14.0345 14.9342C14.0314 14.9482 14.0205 14.9654 14.0142 14.9795C13.9939 15.0232 13.9705 15.067 13.9455 15.1092C13.9251 15.1451 13.9033 15.1795 13.8798 15.2123C13.8673 15.2311 13.8533 15.2561 13.8376 15.2717C13.8923 15.2154 13.8205 15.292 13.8111 15.3029C13.7783 15.342 13.7439 15.3779 13.7064 15.4139C13.6845 15.4357 13.6611 15.4576 13.6376 15.4779C13.6236 15.4904 13.608 15.5029 13.5923 15.5154L13.5876 15.5201C13.5861 15.5217 13.5845 15.5217 13.583 15.5232C13.5439 15.5498 13.5064 15.5764 13.4658 15.6014C13.4251 15.6264 13.3845 15.6482 13.3423 15.6701C13.3283 15.6779 13.3142 15.6842 13.3001 15.6904C13.297 15.692 13.2923 15.6951 13.2861 15.6982C13.2845 15.6982 13.2845 15.6998 13.283 15.6998C13.2064 15.7436 13.097 15.7639 13.0126 15.7826C12.9814 15.7904 12.9267 15.8092 12.8923 15.8045C12.9033 15.8029 12.9158 15.8014 12.9267 15.7998C12.9111 15.8014 12.8939 15.8029 12.8783 15.8045L12.8033 15.8092C12.7173 15.8123 12.6298 15.8107 12.5439 15.8014C12.5345 15.7998 12.5267 15.7998 12.5236 15.7998C12.5095 15.7967 12.4939 15.7936 12.4908 15.792C12.4564 15.7857 12.422 15.7779 12.3876 15.7686C12.347 15.7592 12.3064 15.7467 12.2673 15.7326C12.2517 15.7279 12.2345 15.7217 12.2189 15.7154C12.2095 15.7123 12.1986 15.7076 12.1892 15.7045C12.1798 15.6998 12.1736 15.6982 12.1705 15.6967C12.1736 15.6982 12.1861 15.7029 12.2064 15.7123C12.1798 15.7139 12.1283 15.6764 12.1048 15.6639C12.072 15.6467 12.0376 15.6279 12.0064 15.6092C11.9767 15.592 11.9486 15.5732 11.9205 15.5545C11.9033 15.5436 11.8876 15.5311 11.8705 15.5186C11.8689 15.517 11.8673 15.517 11.8658 15.5154C11.8611 15.5123 11.8564 15.5076 11.8533 15.5045C11.7986 15.4592 11.747 15.4107 11.697 15.3592C11.672 15.3326 11.647 15.3045 11.6236 15.2748C11.6189 15.2701 11.6158 15.2639 11.6111 15.2592C11.6048 15.2514 11.6001 15.2451 11.5986 15.2436C11.5923 15.2357 11.5876 15.2279 11.5876 15.2264C11.5439 15.1654 11.5064 15.1014 11.472 15.0342C11.4595 15.0092 11.4158 14.9498 11.4189 14.9232C11.4189 14.9264 11.447 14.9951 11.4267 14.9404C11.4173 14.9139 11.408 14.8889 11.3986 14.8623C11.3751 14.7889 11.3548 14.7154 11.3408 14.6389C11.3376 14.6232 11.3361 14.6076 11.333 14.592C11.3283 14.5467 11.3251 14.5014 11.3236 14.4561C11.3205 14.3764 11.3267 14.2967 11.333 14.217V14.2107C11.3376 14.1889 11.3408 14.1654 11.3455 14.1436C11.3548 14.0998 11.3642 14.0561 11.3767 14.0123C11.3892 13.9701 11.4033 13.9279 11.4173 13.8857C11.4205 13.8764 11.4314 13.8561 11.433 13.8467C11.4345 13.8436 11.4361 13.842 11.4361 13.8389C11.472 13.7592 11.5158 13.6826 11.5642 13.6107C11.5798 13.5873 11.5955 13.5592 11.6142 13.5373C11.6205 13.5311 11.6283 13.5232 11.6314 13.5186C11.6455 13.5014 11.6595 13.4857 11.6736 13.4701C11.7267 13.4107 11.7845 13.3561 11.8455 13.3045C11.8501 13.3014 11.8564 13.2951 11.8611 13.2889C11.8736 13.2795 11.8892 13.2701 11.9017 13.2607C11.9314 13.2404 11.9611 13.2201 11.9923 13.2014C12.0298 13.1779 12.0673 13.1576 12.1064 13.1373C12.1189 13.1311 12.133 13.1248 12.1455 13.1186C12.1564 13.1139 12.1673 13.1092 12.1783 13.1029C12.2673 13.0701 12.358 13.0404 12.4517 13.0201C12.4736 13.0154 12.497 13.0107 12.5189 13.0076C12.5267 13.0061 12.547 13.0045 12.5564 13.0029H12.5595C12.6158 12.9982 12.672 12.9951 12.7283 12.9951C12.7642 12.9951 12.8017 12.9967 12.8376 12.9982C12.8595 12.9998 12.9267 12.9936 12.9439 13.0076C12.9298 13.0061 12.9158 13.0045 12.9033 13.0029C12.9173 13.0045 12.9314 13.0076 12.9455 13.0092C12.9658 13.0123 12.9876 13.017 13.008 13.0217C13.0486 13.0311 13.0892 13.0404 13.1298 13.0529C13.1736 13.0654 13.2158 13.0779 13.258 13.092C13.2689 13.0951 13.2751 13.0936 13.2798 13.0936C13.297 13.1092 13.3142 13.117 13.3251 13.1217C13.4017 13.1592 13.4751 13.2045 13.5455 13.2529C13.5595 13.2623 13.5736 13.2732 13.5876 13.2842C13.5892 13.2857 13.5908 13.2873 13.5923 13.2873C13.597 13.2904 13.6017 13.2951 13.6048 13.2982C13.6361 13.3248 13.6658 13.3514 13.6955 13.3795C13.7267 13.4107 13.758 13.442 13.7876 13.4748C13.7986 13.4873 13.8095 13.4998 13.8205 13.5139C13.8298 13.5248 13.8376 13.5342 13.847 13.5451C13.8501 13.5498 13.8533 13.5529 13.8548 13.5561C13.8501 13.5514 13.8439 13.542 13.8345 13.5311C13.8517 13.5342 13.8939 13.6154 13.9048 13.6311C13.9283 13.6686 13.9533 13.7061 13.9736 13.7451C13.9939 13.7842 14.0173 13.8232 14.033 13.8623V13.867C14.0392 13.8873 14.047 13.9061 14.0533 13.9248C14.083 14.0107 14.1048 14.0998 14.122 14.1889C14.1236 14.1951 14.1236 14.2029 14.1251 14.2092C14.1267 14.2201 14.1283 14.2264 14.1283 14.2295C14.1283 14.2248 14.1251 14.2123 14.1236 14.1889C14.133 14.1998 14.1298 14.2404 14.1298 14.2529L14.1345 14.3279V14.4029Z" fill="white"/>
<path d="M22.7077 9.59222C22.664 9.05159 22.2421 8.62816 21.6999 8.56878C21.6296 8.56097 21.5577 8.56409 21.4858 8.56409H12.9577C12.7671 8.56409 12.5858 8.59222 12.4108 8.67191C12.0171 8.85159 11.7812 9.26253 11.7796 9.68753C11.778 10.1422 11.7812 10.5953 11.7812 11.05V12.5516C11.7812 12.5688 11.7812 12.586 11.7827 12.6032C11.8827 12.55 11.9874 12.5063 12.0937 12.4719C12.1437 12.4563 12.1937 12.4422 12.2437 12.4297C12.2577 12.4266 12.2718 12.4235 12.2843 12.4203C12.3249 12.4125 12.3655 12.4047 12.4062 12.3985C12.8077 12.3375 13.2046 12.3953 13.578 12.5625C14.2702 12.8703 14.7187 13.5813 14.7499 14.3282C14.7655 14.3532 14.7655 14.3766 14.7655 14.4016V14.4078C14.7655 14.4094 14.7624 14.411 14.7624 14.4125C14.7608 14.6422 14.7187 14.8672 14.6437 15.0813C14.6062 15.1891 14.5577 15.2938 14.503 15.3938C14.4421 15.5032 14.3702 15.6078 14.2905 15.7063H16.0468V16.8938H15.3312C15.1546 16.8938 14.9843 17.0047 14.9062 17.161C14.5796 16.7485 14.1546 16.4375 13.6562 16.2532C13.6405 16.2469 13.6233 16.2407 13.6077 16.236C13.4108 16.1672 13.2062 16.125 13.0015 16.1047C12.8218 16.0875 12.6405 16.0891 12.4624 16.1063C12.2546 16.1266 12.0483 16.1719 11.8499 16.2375C11.3733 16.3969 10.939 16.6813 10.614 17.075C10.1983 17.5782 9.96553 18.2032 9.9624 18.8578C9.9624 19.0266 10.1062 19.1735 10.2749 19.1735H15.178C15.3421 19.1735 15.4983 19.0297 15.4905 18.861V18.8547C15.489 18.5047 15.4218 18.1532 15.2937 17.8282C15.3062 17.8297 15.3187 17.8297 15.3327 17.8297H19.4733C19.7187 17.8297 19.953 17.6141 19.9421 17.361C19.9312 17.1063 19.7358 16.8922 19.4733 16.8922H18.453V15.7047H21.1358C21.3983 15.7047 21.7062 15.7344 21.9562 15.6438C22.4062 15.4813 22.7108 15.0672 22.7155 14.586C22.7171 14.4875 22.7187 14.386 22.7187 14.2875V9.67034C22.7187 9.64378 22.7155 9.61722 22.7077 9.59222ZM15.8608 12.9703C16.0468 13.1563 16.0327 13.4469 15.8608 13.6328C15.689 13.8188 15.3718 13.8063 15.1983 13.6328C15.1515 13.586 15.1046 13.5391 15.0577 13.4907C14.7265 13.161 14.3968 12.8297 14.0655 12.4985C13.8858 12.3188 13.8858 12.0141 14.0655 11.836C14.1124 11.7891 14.1593 11.7422 14.2062 11.6938C14.5374 11.3641 14.8671 11.0328 15.1983 10.7016C15.3843 10.5157 15.6749 10.5297 15.8608 10.7016C16.0468 10.8735 16.0358 11.1907 15.8624 11.3641C15.8155 11.411 15.7702 11.4578 15.7233 11.5047C15.503 11.725 15.2827 11.9453 15.064 12.1657C15.3296 12.436 15.5937 12.7032 15.8608 12.9703ZM18.2499 10.6L18.114 11.0172L17.5187 12.8407C17.3937 13.2219 17.2687 13.6032 17.1452 13.986C17.064 14.236 16.8265 14.3719 16.5687 14.3141C16.3296 14.2594 16.1655 13.9703 16.2405 13.7375L16.3765 13.3203L16.9718 11.4969C17.0968 11.1157 17.2218 10.7344 17.3452 10.3516C17.4265 10.1016 17.664 9.96566 17.9218 10.0235C18.1608 10.0782 18.3265 10.3672 18.2499 10.6ZM20.4249 12.5L20.2843 12.6407L19.2921 13.6328C19.1062 13.8188 18.8171 13.8047 18.6296 13.6328C18.4437 13.461 18.4562 13.1438 18.6296 12.9703C18.6765 12.9235 18.7249 12.8766 18.7718 12.8297C18.9921 12.6094 19.2124 12.3907 19.4327 12.1703C19.164 11.9032 18.8968 11.636 18.628 11.3672C18.4421 11.1813 18.4562 10.8907 18.628 10.7047C18.7999 10.5188 19.1171 10.5313 19.2905 10.7047L19.4312 10.8453L20.4233 11.8375C20.6046 12.0157 20.6046 12.3203 20.4249 12.5Z" fill="white"/>
<path d="M35.8896 18H34.0146V14.7969H31.2461V18H29.3711V10.7295H31.2461V13.3906H34.0146V10.7295H35.8896V18ZM41.6807 18H37.4229V16.7109H38.6143V12.0186H37.4229V10.7295H41.6807V12.0186H40.4893V16.7109H41.6807V18ZM47.2861 12.9561C47.2861 12.7738 47.2487 12.6175 47.1738 12.4873C47.099 12.3571 46.9704 12.2546 46.7881 12.1797C46.6611 12.1276 46.513 12.0967 46.3438 12.0869C46.1745 12.0739 45.9775 12.0674 45.7529 12.0674H45.0742V14.0254H45.6504C45.9499 14.0254 46.2005 14.0107 46.4023 13.9814C46.6042 13.9521 46.7734 13.8854 46.9102 13.7812C47.0404 13.6803 47.1348 13.5697 47.1934 13.4492C47.2552 13.3255 47.2861 13.1611 47.2861 12.9561ZM50.2109 18H47.9209L45.9385 15.334H45.0742V18H43.209V10.7295H46.3535C46.7832 10.7295 47.1527 10.7539 47.4619 10.8027C47.7712 10.8516 48.0609 10.9574 48.3311 11.1201C48.6045 11.2829 48.821 11.4945 48.9805 11.7549C49.1432 12.012 49.2246 12.3359 49.2246 12.7266C49.2246 13.2637 49.0993 13.7015 48.8486 14.04C48.6012 14.3786 48.2464 14.6602 47.7842 14.8848L50.2109 18ZM56.29 18H51.0312V10.7295H56.29V12.1357H52.8965V13.3906H56.0459V14.7969H52.8965V16.5938H56.29V18ZM66.4951 12.1357H63.1504V13.4883H66.251V14.8945H63.1504V18H61.2852V10.7295H66.4951V12.1357ZM73.0332 18H67.7891V10.7295H69.6641V16.5938H73.0332V18ZM80.5332 15.3682C80.5332 16.2666 80.2598 16.9551 79.7129 17.4336C79.166 17.9121 78.3604 18.1514 77.2959 18.1514C76.2314 18.1514 75.4258 17.9121 74.8789 17.4336C74.3353 16.9551 74.0635 16.2682 74.0635 15.373V10.7295H75.9482V15.2656C75.9482 15.7702 76.054 16.1462 76.2656 16.3936C76.4772 16.641 76.8206 16.7646 77.2959 16.7646C77.7646 16.7646 78.1064 16.6458 78.3213 16.4082C78.5394 16.1706 78.6484 15.7897 78.6484 15.2656V10.7295H80.5332V15.3682ZM87.9795 12.1357H85.709V18H83.834V12.1357H81.5635V10.7295H87.9795V12.1357ZM94.7959 12.1357H92.5254V18H90.6504V12.1357H88.3799V10.7295H94.7959V12.1357ZM101.183 18H95.9238V10.7295H101.183V12.1357H97.7891V13.3906H100.938V14.7969H97.7891V16.5938H101.183V18ZM106.837 12.9561C106.837 12.7738 106.799 12.6175 106.725 12.4873C106.65 12.3571 106.521 12.2546 106.339 12.1797C106.212 12.1276 106.064 12.0967 105.895 12.0869C105.725 12.0739 105.528 12.0674 105.304 12.0674H104.625V14.0254H105.201C105.501 14.0254 105.751 14.0107 105.953 13.9814C106.155 13.9521 106.324 13.8854 106.461 13.7812C106.591 13.6803 106.686 13.5697 106.744 13.4492C106.806 13.3255 106.837 13.1611 106.837 12.9561ZM109.762 18H107.472L105.489 15.334H104.625V18H102.76V10.7295H105.904C106.334 10.7295 106.703 10.7539 107.013 10.8027C107.322 10.8516 107.612 10.9574 107.882 11.1201C108.155 11.2829 108.372 11.4945 108.531 11.7549C108.694 12.012 108.775 12.3359 108.775 12.7266C108.775 13.2637 108.65 13.7015 108.399 14.04C108.152 14.3786 107.797 14.6602 107.335 14.8848L109.762 18ZM120.87 14.3721C120.87 15.0492 120.715 15.6562 120.406 16.1934C120.097 16.7272 119.706 17.1374 119.234 17.4238C118.88 17.6387 118.491 17.7884 118.067 17.873C117.644 17.9577 117.143 18 116.563 18H114V10.7295H116.637C117.229 10.7295 117.74 10.7799 118.17 10.8809C118.6 10.9785 118.961 11.1185 119.254 11.3008C119.755 11.6068 120.149 12.0202 120.436 12.541C120.725 13.0586 120.87 13.6689 120.87 14.3721ZM118.932 14.3574C118.932 13.8789 118.844 13.4704 118.668 13.1318C118.495 12.79 118.22 12.5231 117.843 12.3311C117.651 12.2367 117.454 12.1732 117.252 12.1406C117.053 12.1048 116.752 12.0869 116.349 12.0869H115.875V16.6377H116.349C116.795 16.6377 117.122 16.6182 117.33 16.5791C117.538 16.5368 117.742 16.4619 117.94 16.3545C118.282 16.1592 118.533 15.8988 118.692 15.5732C118.852 15.2445 118.932 14.8392 118.932 14.3574ZM127.56 18H122.301V10.7295H127.56V12.1357H124.166V13.3906H127.315V14.7969H124.166V16.5938H127.56V18ZM135.729 10.7295L133.077 18H130.978L128.326 10.7295H130.294L132.052 15.8369L133.81 10.7295H135.729ZM142.032 18H136.773V10.7295H142.032V12.1357H138.639V13.3906H141.788V14.7969H138.639V16.5938H142.032V18ZM148.854 18H143.609V10.7295H145.484V16.5938H148.854V18ZM157.057 14.3672C157.057 15.526 156.725 16.4473 156.061 17.1309C155.396 17.8112 154.479 18.1514 153.307 18.1514C152.138 18.1514 151.222 17.8112 150.558 17.1309C149.894 16.4473 149.562 15.526 149.562 14.3672C149.562 13.1986 149.894 12.2757 150.558 11.5986C151.222 10.9183 152.138 10.5781 153.307 10.5781C154.472 10.5781 155.388 10.9183 156.056 11.5986C156.723 12.2757 157.057 13.1986 157.057 14.3672ZM154.571 16.208C154.754 15.9867 154.889 15.7262 154.977 15.4268C155.064 15.124 155.108 14.7692 155.108 14.3623C155.108 13.9261 155.058 13.555 154.957 13.249C154.856 12.943 154.724 12.6956 154.562 12.5068C154.396 12.3115 154.203 12.1699 153.985 12.082C153.771 11.9941 153.546 11.9502 153.312 11.9502C153.074 11.9502 152.849 11.9925 152.638 12.0771C152.429 12.1618 152.237 12.3018 152.062 12.4971C151.899 12.6794 151.765 12.9316 151.661 13.2539C151.56 13.5729 151.51 13.944 151.51 14.3672C151.51 14.8001 151.559 15.1696 151.656 15.4756C151.757 15.7783 151.889 16.0257 152.052 16.2178C152.215 16.4098 152.405 16.5514 152.623 16.6426C152.841 16.7337 153.071 16.7793 153.312 16.7793C153.552 16.7793 153.782 16.7337 154 16.6426C154.218 16.5482 154.409 16.4033 154.571 16.208ZM164.493 13.0244C164.493 13.3499 164.436 13.6689 164.322 13.9814C164.208 14.2907 164.046 14.5511 163.834 14.7627C163.544 15.0492 163.22 15.2656 162.862 15.4121C162.507 15.5586 162.065 15.6318 161.534 15.6318H160.367V18H158.492V10.7295H161.578C162.04 10.7295 162.429 10.7702 162.745 10.8516C163.064 10.9297 163.346 11.0485 163.59 11.208C163.883 11.4001 164.106 11.6458 164.259 11.9453C164.415 12.2448 164.493 12.6045 164.493 13.0244ZM162.555 13.0684C162.555 12.8633 162.499 12.6875 162.389 12.541C162.278 12.3913 162.149 12.2871 162.003 12.2285C161.808 12.1504 161.617 12.1081 161.432 12.1016C161.246 12.0918 160.999 12.0869 160.689 12.0869H160.367V14.2646H160.904C161.223 14.2646 161.485 14.2451 161.69 14.2061C161.899 14.167 162.073 14.0889 162.213 13.9717C162.333 13.8675 162.42 13.7438 162.472 13.6006C162.527 13.4541 162.555 13.2767 162.555 13.0684ZM171.085 18H165.826V10.7295H171.085V12.1357H167.691V13.3906H170.841V14.7969H167.691V16.5938H171.085V18ZM176.739 12.9561C176.739 12.7738 176.702 12.6175 176.627 12.4873C176.552 12.3571 176.424 12.2546 176.241 12.1797C176.114 12.1276 175.966 12.0967 175.797 12.0869C175.628 12.0739 175.431 12.0674 175.206 12.0674H174.527V14.0254H175.104C175.403 14.0254 175.654 14.0107 175.855 13.9814C176.057 13.9521 176.227 13.8854 176.363 13.7812C176.493 13.6803 176.588 13.5697 176.646 13.4492C176.708 13.3255 176.739 13.1611 176.739 12.9561ZM179.664 18H177.374L175.392 15.334H174.527V18H172.662V10.7295H175.807C176.236 10.7295 176.606 10.7539 176.915 10.8027C177.224 10.8516 177.514 10.9574 177.784 11.1201C178.058 11.2829 178.274 11.4945 178.434 11.7549C178.596 12.012 178.678 12.3359 178.678 12.7266C178.678 13.2637 178.552 13.7015 178.302 14.04C178.054 14.3786 177.7 14.6602 177.237 14.8848L179.664 18Z" fill="white"/>
</svg>
